<svg xmlns="http://www.w3.org/2000/svg" width="600" height="600" fill="none" viewBox="0 0 600 600"><rect width="452" height="452" x="53" y="58" stroke="context-fill" stroke-linejoin="round" stroke-width="30" rx="80"/><g fill="context-fill" fill-rule="evenodd"><path d="M175 90h292A80 80 0 0 1 547 170v292A80 80 0 0 1 467 542h-292A80 80 0 0 1 95 462v-292A80 80 0 0 1 175 90M95 90M321 316 M293.667 220.666C304.723 198.554 336.277 198.554 347.333 220.666L432.308 390.616C444.814 415.628 419.067 443.212 392.87 433.428C363.012 422.277 332.936 412.348 320.5 412.348C308.064 412.348 277.988 422.277 248.13 433.428C221.933 443.212 196.186 415.628 208.692 390.616L293.667 220.666Z" rx="80"/></g></svg>